<?xml version="1.0" encoding="utf-8"?>
<!-- Generator: Adobe Illustrator 16.0.0, SVG Export Plug-In . SVG Version: 6.00 Build 0)  -->
<!DOCTYPE svg PUBLIC "-//W3C//DTD SVG 1.1//EN" "http://www.w3.org/Graphics/SVG/1.1/DTD/svg11.dtd">
<svg version="1.1" id="Layer_1" xmlns="http://www.w3.org/2000/svg" xmlns:xlink="http://www.w3.org/1999/xlink" x="0px" y="0px"
	 width="245px" height="232px" viewBox="0 0 245 232" enable-background="new 0 0 245 232" xml:space="preserve">
<g>
	<polygon fill="#010101" points="140.575,115.408 129.169,166.578 104.625,138.701 122.599,172.936 125.418,189.873 
		115.549,199.402 134.938,192.697 152.208,196.932 139.164,187.051 139.87,168.697 169.479,117.172 137.05,157.406 	"/>
	<g>
		<path fill="#010101" d="M54.086,133.891h26.319v9.361h-8.902v56.15h-8.516v-56.15h-8.902L54.086,133.891L54.086,133.891z"/>
	</g>
	<g>
		<ellipse fill="#D7DF23" cx="176.318" cy="116.707" rx="14.562" ry="13.494"/>
		<ellipse fill="#D7DF23" cx="122.522" cy="100.21" rx="14.562" ry="13.494"/>
		<ellipse fill="#D7DF23" cx="26.543" cy="111.249" rx="14.564" ry="13.495"/>
		<ellipse fill="#D7DF23" cx="59.722" cy="74.835" rx="14.562" ry="13.493"/>
		<ellipse fill="#D7DF23" cx="55.328" cy="55.294" rx="14.562" ry="13.493"/>
		<ellipse fill="#D7DF23" cx="113.531" cy="51.874" rx="14.565" ry="13.495"/>
		<ellipse fill="#D7DF23" cx="148.598" cy="16.927" rx="14.562" ry="13.494"/>
		<ellipse fill="#D7DF23" cx="150.629" cy="74.205" rx="14.562" ry="13.495"/>
		<ellipse fill="#D7DF23" cx="91.648" cy="21.373" rx="14.562" ry="13.492"/>
		<path fill="#D7DF23" d="M204.626,83.411c0,7.453-6.521,13.493-14.562,13.493c-8.045,0-14.563-6.041-14.563-13.493
			c0-7.451,6.521-13.496,14.563-13.496C198.105,69.915,204.626,75.959,204.626,83.411z"/>
		<ellipse fill="#D7DF23" cx="163.16" cy="56.493" rx="14.562" ry="13.492"/>
		<ellipse fill="#D7DF23" cx="78.311" cy="116.133" rx="14.564" ry="13.494"/>
		<ellipse fill="#D7DF23" cx="204.626" cy="42.999" rx="14.562" ry="13.492"/>
		<ellipse fill="#D7DF23" cx="227.6" cy="95.478" rx="14.563" ry="13.492"/>
	</g>
	<g>
		<g>
			<path fill="none" stroke="#010101" stroke-width="0.7" stroke-miterlimit="10" d="M158.841,125.357l6.207,6.812
				c0,0,1.052-3.588,6.209-3.405c0,0,13.468,0.264,17.505-10.628c0,0,2.338-5.562-2.826-11.773c0,0-6.691-9.113-16.936-1.531
				c0,0-5.428,2.837-6.533,13.064C162.469,117.896,162.792,124.186,158.841,125.357z"/>
			<path fill="none" stroke="#010101" stroke-width="0.7" stroke-miterlimit="10" d="M162.311,126.77c0,0,5.158-2.662,7.735-8.553
				c0,0,0.246-2.287-1.125-1.221c0,0-0.81,2.109,2.659,2.352c0,0,1.771,0,1.855-1.369c0,0-2.742-0.969-1.533,2.66
				c0,0,1.289,1.881,3.545,1.105c0,0,0.322-2.449-3.631,0c0,0-6.371,3.896-7.825,7.201"/>
			<g>
				<path fill="#010101" d="M163.372,133.008c-0.175,0.16-0.388,0.209-0.478,0.107l-5.268-5.592
					c-0.093-0.104-0.029-0.316,0.139-0.476l0,0c0.174-0.159,0.385-0.209,0.481-0.108l5.261,5.598
					C163.605,132.633,163.54,132.844,163.372,133.008L163.372,133.008z"/>
				<path fill="#010101" d="M162.359,134.02c-0.174,0.166-0.387,0.215-0.479,0.111l-5.265-5.598c-0.091-0.1-0.025-0.312,0.138-0.471
					l0,0c0.176-0.16,0.387-0.209,0.479-0.111l5.268,5.598C162.591,133.65,162.531,133.861,162.359,134.02L162.359,134.02z"/>
				<g>
					<path fill="#010101" d="M161.783,134.443l-5.266-5.599c-0.09-0.1-0.308-0.051-0.479,0.111s-0.23,0.369-0.139,0.473l5.267,5.597
						c0.097,0.098,0.31,0.051,0.478-0.111C161.812,134.754,161.878,134.543,161.783,134.443z"/>
					<path fill="#010101" d="M157.141,133.168c0,0,1.002,1.242,2.756,0.51l-2.756-2.928
						C157.141,130.75,156.135,131.996,157.141,133.168z"/>
				</g>
			</g>
		</g>
		<g>
			<path fill="none" stroke="#010101" stroke-width="0.7" stroke-miterlimit="10" d="M93.169,25.759l5.712-1.282
				c0,0-1.652-1.708,0.074-4.499c0,0,4.38-7.349-0.358-12.997c0,0-2.333-3.041-7.383-2.146c0,0-7.135,0.827-6.175,8.863
				c0,0-0.14,3.887,5.154,7.714C90.192,21.411,93.765,23.213,93.169,25.759z"/>
			<path fill="none" stroke="#010101" stroke-width="0.7" stroke-miterlimit="10" d="M95.037,24.292c0,0,0.156-3.687-2.282-6.96
				c0,0-1.185-0.854-1.03,0.237c0,0,0.913,1.108,2.137-0.728c0,0,0.556-0.979-0.173-1.456c0,0-1.398,1.209,0.987,1.684
				c0,0,1.444-0.123,1.724-1.612c0,0-1.25-0.949-1.143,2.001c0,0,0.148,4.742,1.516,6.582"/>
			<g>
				<path fill="#010101" d="M98.813,25.667c0.033,0.146-0.006,0.278-0.09,0.298l-4.744,1.148c-0.087,0.019-0.183-0.082-0.218-0.226
					l0,0c-0.035-0.147,0.004-0.28,0.09-0.3l4.744-1.145C98.682,25.419,98.777,25.523,98.813,25.667L98.813,25.667z"/>
				<path fill="#010101" d="M99.055,26.544c0.034,0.144-0.006,0.276-0.09,0.299l-4.742,1.146c-0.085,0.02-0.182-0.078-0.218-0.226
					l0,0c-0.036-0.145,0.004-0.278,0.09-0.298l4.744-1.145C98.923,26.296,99.021,26.398,99.055,26.544L99.055,26.544z"/>
				<g>
					<path fill="#010101" d="M99.105,26.995l-4.743,1.144c-0.084,0.021-0.125,0.152-0.089,0.298
						c0.034,0.146,0.129,0.248,0.216,0.225l4.744-1.147c0.083-0.019,0.125-0.153,0.091-0.3
						C99.291,27.076,99.193,26.974,99.105,26.995z"/>
					<path fill="#010101" d="M96.943,29.157c0,0,1-0.163,1.148-1.361l-2.485,0.599C95.606,28.393,95.983,29.343,96.943,29.157z"/>
				</g>
			</g>
		</g>
		<g>
			<path fill="none" stroke="#010101" stroke-width="0.7" stroke-miterlimit="10" d="M158.52,64.891l7.75-0.655
				c0,0-1.861-2.544,0.914-5.907c0,0,7.094-8.88,1.877-17.172c0,0-2.524-4.424-9.328-4.159c0,0-9.541-0.201-9.727,10.549
				c0,0-0.89,5.089,5.391,11.083C155.391,58.63,159.768,61.646,158.52,64.891z"/>
			<path fill="none" stroke="#010101" stroke-width="0.7" stroke-miterlimit="10" d="M161.244,63.296c0,0,0.869-4.821-1.743-9.574
				c0,0-1.409-1.338-1.403,0.125c0,0,1,1.625,2.938-0.569c0,0,0.914-1.188,0.037-1.948c0,0-2.058,1.337,0.991,2.392
				c0,0,1.925,0.102,2.562-1.807c0,0-1.472-1.473-1.862,2.428c0,0-0.664,6.267,0.803,8.938"/>
			<g>
				<path fill="#010101" d="M165.967,65.79c0.021,0.197-0.058,0.369-0.172,0.377l-6.449,0.648c-0.115,0.014-0.223-0.136-0.242-0.334
					l0,0c-0.024-0.198,0.061-0.368,0.174-0.378l6.451-0.65C165.84,65.441,165.948,65.593,165.967,65.79L165.967,65.79z"/>
				<path fill="#010101" d="M166.126,66.988c0.026,0.198-0.058,0.366-0.171,0.376l-6.449,0.65c-0.117,0.013-0.223-0.139-0.246-0.337
					l0,0c-0.021-0.196,0.059-0.364,0.174-0.375l6.45-0.648C165.997,66.639,166.107,66.792,166.126,66.988L166.126,66.988z"/>
				<g>
					<path fill="#010101" d="M166.111,67.59l-6.451,0.651c-0.113,0.009-0.191,0.176-0.172,0.375
						c0.021,0.198,0.128,0.349,0.246,0.337l6.447-0.651c0.117-0.014,0.194-0.18,0.174-0.377
						C166.337,67.728,166.23,67.58,166.111,67.59z"/>
					<path fill="#010101" d="M162.874,70.044c0,0,1.347-0.03,1.754-1.584l-3.38,0.341C161.255,68.801,161.575,70.117,162.874,70.044
						z"/>
				</g>
			</g>
		</g>
		<g>
			<path fill="none" stroke="#010101" stroke-width="0.7" stroke-miterlimit="10" d="M138.793,75.217l3.947,4.332
				c0,0,0.667-2.282,3.949-2.167c0,0,8.563,0.167,11.127-6.753c0,0,1.486-3.54-1.795-7.488c0,0-4.26-5.794-10.771-0.973
				c0,0-3.449,1.803-4.153,8.305C141.102,70.471,141.309,74.472,138.793,75.217z"/>
			<path fill="none" stroke="#010101" stroke-width="0.7" stroke-miterlimit="10" d="M140.997,76.113c0,0,3.284-1.69,4.925-5.434
				c0,0,0.152-1.455-0.718-0.778c0,0-0.513,1.342,1.692,1.496c0,0,1.125,0,1.179-0.871c0,0-1.744-0.618-0.974,1.692
				c0,0,0.816,1.196,2.254,0.701c0,0,0.207-1.555-2.306,0c0,0-4.049,2.48-4.972,4.581"/>
			<g>
				<path fill="#010101" d="M141.674,80.081c-0.105,0.102-0.244,0.133-0.306,0.07l-3.347-3.558
					c-0.061-0.062-0.021-0.199,0.086-0.301l0,0c0.111-0.102,0.248-0.132,0.307-0.07l3.35,3.56
					C141.82,79.846,141.782,79.979,141.674,80.081L141.674,80.081z"/>
				<path fill="#010101" d="M141.029,80.724c-0.105,0.105-0.243,0.134-0.305,0.07l-3.35-3.556c-0.059-0.062-0.018-0.197,0.09-0.301
					l0,0c0.109-0.102,0.246-0.131,0.305-0.07l3.351,3.557C141.18,80.49,141.139,80.624,141.029,80.724L141.029,80.724z"/>
				<g>
					<path fill="#010101" d="M140.664,80.993l-3.35-3.556c-0.057-0.065-0.193-0.033-0.306,0.07c-0.11,0.102-0.147,0.236-0.087,0.3
						l3.348,3.556c0.062,0.064,0.197,0.034,0.306-0.069C140.686,81.19,140.725,81.058,140.664,80.993z"/>
					<path fill="#010101" d="M137.712,80.183c0,0,0.636,0.79,1.753,0.323l-1.753-1.863C137.712,78.644,137.07,79.439,137.712,80.183
						z"/>
				</g>
			</g>
		</g>
		<g>
			<path fill="none" stroke="#010101" stroke-width="0.7" stroke-miterlimit="10" d="M187.844,92.812l5.54-2.712
				c0,0-2.108-1.348-1.024-4.627c0,0,2.695-8.606-3.541-13.234c0,0-3.137-2.545-8.094-0.396c0,0-7.107,2.593-4.162,10.593
				c0,0,0.811,4.018,7.17,6.644C183.729,89.08,187.832,90.052,187.844,92.812z"/>
			<path fill="none" stroke="#010101" stroke-width="0.7" stroke-miterlimit="10" d="M189.398,90.848c0,0-0.742-3.816-4.041-6.578
				c0,0-1.42-0.582-0.998,0.497c0,0,1.207,0.914,2.012-1.267c0,0,0.331-1.139-0.532-1.451c0,0-1.138,1.58,1.422,1.484
				c0,0,1.45-0.477,1.37-2.075c0,0-1.508-0.666-0.677,2.333c0,0,1.31,4.824,3.159,6.379"/>
			<g>
				<path fill="#010101" d="M193.605,91.335c0.074,0.14,0.064,0.288-0.02,0.327l-4.581,2.334c-0.081,0.042-0.208-0.038-0.274-0.175
					l0,0c-0.074-0.141-0.067-0.287,0.018-0.327l4.583-2.335C193.412,91.113,193.536,91.193,193.605,91.335L193.605,91.335z"/>
				<path fill="#010101" d="M194.068,92.175c0.072,0.14,0.062,0.286-0.021,0.329l-4.583,2.334c-0.081,0.042-0.208-0.04-0.277-0.177
					l0,0c-0.068-0.139-0.062-0.287,0.023-0.331l4.579-2.332C193.872,91.954,193.999,92.033,194.068,92.175L194.068,92.175z"/>
				<g>
					<path fill="#010101" d="M194.23,92.625l-4.582,2.335c-0.08,0.039-0.086,0.186-0.021,0.328c0.073,0.14,0.196,0.219,0.276,0.176
						l4.58-2.333c0.082-0.044,0.091-0.19,0.021-0.33C194.438,92.664,194.314,92.581,194.23,92.625z"/>
					<path fill="#010101" d="M192.541,95.369c0,0,0.986-0.411,0.846-1.676l-2.396,1.222
						C190.986,94.915,191.604,95.794,192.541,95.369z"/>
				</g>
			</g>
		</g>
		<g>
			<path fill="none" stroke="#010101" stroke-width="0.7" stroke-miterlimit="10" d="M109.016,100.478l4.052,4.446
				c0,0,0.684-2.342,4.053-2.224c0,0,8.791,0.174,11.422-6.934c0,0,1.527-3.632-1.842-7.687c0,0-4.37-5.946-11.053-0.999
				c0,0-3.542,1.852-4.265,8.526C111.384,95.607,111.595,99.715,109.016,100.478z"/>
			<path fill="none" stroke="#010101" stroke-width="0.7" stroke-miterlimit="10" d="M111.277,101.399c0,0,3.37-1.738,5.055-5.58
				c0,0,0.159-1.493-0.736-0.801c0,0-0.525,1.38,1.737,1.54c0,0,1.159,0,1.21-0.898c0,0-1.79-0.63-1.003,1.74
				c0,0,0.845,1.226,2.317,0.719c0,0,0.21-1.602-2.37,0c0,0-4.16,2.544-5.104,4.7"/>
			<g>
				<path fill="#010101" d="M111.972,105.469c-0.111,0.106-0.253,0.137-0.316,0.074l-3.435-3.653
					c-0.061-0.067-0.021-0.204,0.09-0.308l0,0c0.113-0.106,0.253-0.138,0.315-0.074l3.437,3.653
					C112.122,105.227,112.083,105.365,111.972,105.469L111.972,105.469z"/>
				<path fill="#010101" d="M111.309,106.132c-0.111,0.106-0.25,0.138-0.312,0.073l-3.438-3.652
					c-0.062-0.065-0.02-0.203,0.092-0.309l0,0c0.11-0.106,0.25-0.137,0.312-0.074l3.435,3.654
					C111.461,105.891,111.423,106.028,111.309,106.132L111.309,106.132z"/>
				<g>
					<path fill="#010101" d="M110.934,106.407l-3.435-3.65c-0.061-0.069-0.2-0.035-0.313,0.071
						c-0.113,0.107-0.152,0.244-0.092,0.309l3.438,3.652c0.062,0.067,0.201,0.034,0.313-0.072
						C110.956,106.611,110.997,106.474,110.934,106.407z"/>
					<path fill="#010101" d="M107.902,105.576c0,0,0.655,0.811,1.803,0.33l-1.803-1.908
						C107.902,103.999,107.249,104.814,107.902,105.576z"/>
				</g>
			</g>
		</g>
		<g>
			<path fill="none" stroke="#010101" stroke-width="0.7" stroke-miterlimit="10" d="M46.849,75.113l5.217,5.725
				c0,0,0.88-3.014,5.216-2.863c0,0,11.317,0.221,14.704-8.926c0,0,1.964-4.677-2.371-9.895c0,0-5.625-7.654-14.229-1.285
				c0,0-4.56,2.382-5.488,10.974C49.899,68.843,50.168,74.131,46.849,75.113z"/>
			<path fill="none" stroke="#010101" stroke-width="0.7" stroke-miterlimit="10" d="M49.763,76.298c0,0,4.337-2.234,6.504-7.183
				c0,0,0.205-1.92-0.949-1.029c0,0-0.676,1.776,2.237,1.977c0,0,1.49,0,1.558-1.152c0,0-2.304-0.814-1.288,2.236
				c0,0,1.086,1.582,2.979,0.924c0,0,0.272-2.054-3.047,0c0,0-5.353,3.278-6.572,6.053"/>
			<g>
				<path fill="#010101" d="M50.655,81.542c-0.144,0.132-0.324,0.176-0.403,0.091l-4.423-4.7c-0.078-0.084-0.026-0.263,0.117-0.398
					l0,0c0.146-0.134,0.326-0.174,0.403-0.09l4.425,4.702C50.851,81.23,50.8,81.406,50.655,81.542L50.655,81.542z"/>
				<path fill="#010101" d="M49.805,82.393c-0.142,0.137-0.322,0.177-0.4,0.094l-4.423-4.701c-0.081-0.084-0.028-0.263,0.116-0.397
					l0,0c0.144-0.135,0.323-0.174,0.405-0.091l4.422,4.7C50.002,82.082,49.951,82.259,49.805,82.393L49.805,82.393z"/>
				<g>
					<path fill="#010101" d="M49.321,82.746l-4.424-4.701c-0.077-0.084-0.256-0.043-0.4,0.094c-0.144,0.136-0.197,0.312-0.12,0.396
						l4.425,4.701c0.081,0.085,0.261,0.044,0.404-0.094C49.35,83.008,49.401,82.833,49.321,82.746z"/>
					<path fill="#010101" d="M45.418,81.676c0,0,0.841,1.044,2.318,0.427l-2.318-2.462C45.418,79.641,44.575,80.692,45.418,81.676z"
						/>
				</g>
			</g>
		</g>
		<g>
			<path fill="none" stroke="#010101" stroke-width="0.7" stroke-miterlimit="10" d="M29.21,119.309l3.877-4.427
				c0,0-2.351-0.409-2.607-3.695c0,0-0.794-8.567-7.992-10.348c0,0-3.7-1.086-7.272,2.633c0,0-5.305,4.9,0.241,10.855
				c0,0,2.188,3.239,8.756,3.211C24.215,117.537,28.182,116.885,29.21,119.309z"/>
			<path fill="none" stroke="#010101" stroke-width="0.7" stroke-miterlimit="10" d="M29.855,117.008c0,0-2.055-3.087-5.978-4.303
				c0,0-1.468,0.01-0.696,0.805c0,0,1.397,0.36,1.305-1.854c0,0-0.127-1.128-1.004-1.082c0,0-0.419,1.809,1.798,0.783
				c0,0,1.104-0.956,0.447-2.332c0,0-1.577-0.028,0.259,2.301c0,0,2.929,3.765,5.13,4.45"/>
			<g>
				<path fill="#010101" d="M33.74,115.884c0.113,0.098,0.161,0.229,0.103,0.299l-3.173,3.741c-0.058,0.068-0.197,0.043-0.311-0.055
					l0,0c-0.115-0.098-0.161-0.23-0.103-0.297l3.173-3.743C33.485,115.763,33.624,115.789,33.74,115.884L33.74,115.884z"/>
				<path fill="#010101" d="M34.455,116.455c0.116,0.096,0.162,0.23,0.104,0.297l-3.174,3.74c-0.057,0.068-0.196,0.041-0.311-0.057
					l0,0c-0.116-0.097-0.16-0.228-0.104-0.293l3.174-3.742C34.203,116.333,34.343,116.359,34.455,116.455L34.455,116.455z"/>
				<g>
					<path fill="#010101" d="M34.763,116.791l-3.173,3.74c-0.057,0.07-0.011,0.201,0.103,0.297c0.117,0.096,0.255,0.123,0.311,0.057
						l3.175-3.742c0.056-0.067,0.011-0.201-0.105-0.297C34.96,116.746,34.821,116.725,34.763,116.791z"/>
					<path fill="#010101" d="M34.288,119.828c0,0,0.716-0.721,0.126-1.783l-1.663,1.957
						C32.751,120.002,33.617,120.549,34.288,119.828z"/>
				</g>
			</g>
		</g>
		<g>
			<path fill="none" stroke="#010101" stroke-width="0.7" stroke-miterlimit="10" d="M53.521,58.991l6.202-4.037
				c0,0-2.707-1.297-1.896-5.362c0,0,1.952-10.641-6.155-15.243c0,0-4.108-2.575-9.697,0.714c0,0-8.089,4.125-3.406,13.222
				c0,0,1.547,4.668,9.508,6.869C48.078,55.153,53.105,55.711,53.521,58.991z"/>
			<path fill="none" stroke="#010101" stroke-width="0.7" stroke-miterlimit="10" d="M55.088,56.429c0,0-1.44-4.438-5.773-7.241
				c0,0-1.781-0.49-1.115,0.735c0,0,1.567,0.911,2.208-1.804c0,0,0.23-1.407-0.846-1.65c0,0-1.121,2.049,1.909,1.562
				c0,0,1.66-0.778,1.333-2.67c0,0-1.897-0.568-0.47,2.876c0,0,2.266,5.553,4.699,7.133"/>
			<g>
				<path fill="#010101" d="M60.171,56.394c0.104,0.155,0.117,0.331,0.025,0.394l-5.117,3.45c-0.091,0.063-0.252-0.016-0.356-0.173
					l0,0c-0.104-0.155-0.116-0.333-0.025-0.395l5.116-3.45C59.906,56.16,60.064,56.238,60.171,56.394L60.171,56.394z"/>
				<path fill="#010101" d="M60.845,57.325c0.104,0.158,0.117,0.332,0.024,0.396l-5.115,3.45c-0.093,0.062-0.25-0.018-0.357-0.173
					l0,0c-0.105-0.154-0.117-0.333-0.026-0.393l5.115-3.451C60.579,57.094,60.737,57.169,60.845,57.325L60.845,57.325z"/>
				<g>
					<path fill="#010101" d="M61.104,57.837l-5.116,3.451c-0.09,0.059-0.078,0.234,0.025,0.392c0.105,0.159,0.266,0.234,0.357,0.173
						l5.116-3.448c0.09-0.065,0.08-0.239-0.025-0.397C61.355,57.853,61.194,57.774,61.104,57.837z"/>
					<path fill="#010101" d="M59.493,61.353c0,0,1.112-0.632,0.76-2.12l-2.677,1.805C57.572,61.04,58.435,61.999,59.493,61.353z"/>
				</g>
			</g>
		</g>
		<g>
			<path fill="none" stroke="#010101" stroke-width="0.7" stroke-miterlimit="10" d="M110.623,62.272l7.805-1.501
				c0,0-2.169-2.386,0.288-6.1c0,0,6.251-9.789,0.06-17.652c0,0-3.04-4.223-9.931-3.223c0,0-9.714,0.823-8.746,11.769
				c0,0-0.357,5.267,6.668,10.683C106.769,56.248,111.543,58.842,110.623,62.272z"/>
			<path fill="none" stroke="#010101" stroke-width="0.7" stroke-miterlimit="10" d="M113.222,60.358c0,0,0.37-4.994-2.804-9.54
				c0,0-1.571-1.211-1.408,0.278c0,0,1.191,1.542,2.929-0.9c0,0,0.799-1.301-0.173-1.98c0,0-1.946,1.581,1.265,2.324
				c0,0,1.965-0.102,2.409-2.113c0,0-1.656-1.338-1.633,2.669c0,0,0.001,6.441,1.779,8.995"/>
			<g>
				<path fill="#010101" d="M118.29,62.386c0.042,0.196-0.021,0.375-0.134,0.401l-6.484,1.357c-0.119,0.023-0.246-0.119-0.285-0.316
					l0,0c-0.042-0.198,0.019-0.378,0.133-0.402l6.486-1.358C118.12,62.045,118.248,62.185,118.29,62.386L118.29,62.386z"/>
				<path fill="#010101" d="M118.58,63.584c0.043,0.198-0.019,0.376-0.134,0.403l-6.486,1.355c-0.116,0.024-0.243-0.116-0.285-0.315
					l0,0c-0.041-0.197,0.022-0.378,0.136-0.4l6.486-1.356C118.412,63.247,118.539,63.387,118.58,63.584L118.58,63.584z"/>
				<g>
					<path fill="#010101" d="M118.629,64.196l-6.487,1.359c-0.115,0.023-0.173,0.2-0.131,0.399c0.039,0.199,0.17,0.34,0.284,0.317
						l6.485-1.356c0.119-0.025,0.177-0.204,0.134-0.403C118.875,64.313,118.748,64.174,118.629,64.196z"/>
					<path fill="#010101" d="M115.604,67.04c0,0,1.36-0.178,1.613-1.8l-3.396,0.71C113.823,65.951,114.291,67.252,115.604,67.04z"/>
				</g>
			</g>
		</g>
		<g>
			<path fill="none" stroke="#010101" stroke-width="0.7" stroke-miterlimit="10" d="M149.925,25.419l5.962-4.521
				c0,0-2.822-1.11-2.299-5.267c0,0,1.199-10.872-7.311-14.929c0,0-4.322-2.297-9.727,1.422c0,0-7.854,4.745-2.475,13.578
				c0,0,1.898,4.597,10.08,6.239C144.157,21.94,149.268,22.139,149.925,25.419z"/>
			<path fill="none" stroke="#010101" stroke-width="0.7" stroke-miterlimit="10" d="M151.318,22.721c0,0-1.773-4.368-6.346-6.885
				c0,0-1.832-0.365-1.07,0.824c0,0,1.65,0.804,2.099-1.98c0,0,0.127-1.434-0.974-1.6c0,0-0.981,2.146,2.041,1.434
				c0,0,1.615-0.908,1.156-2.791c0,0-1.957-0.439-0.271,2.934c0,0,2.689,5.437,5.253,6.853"/>
			<g>
				<path fill="#010101" d="M156.441,22.319c0.119,0.148,0.143,0.326,0.054,0.396l-4.908,3.846c-0.09,0.071-0.254,0.002-0.373-0.146
					l0,0c-0.118-0.15-0.144-0.326-0.053-0.396l4.909-3.846C156.157,22.101,156.324,22.168,156.441,22.319L156.441,22.319z"/>
				<path fill="#010101" d="M157.188,23.211c0.119,0.148,0.143,0.325,0.054,0.395l-4.909,3.845
					c-0.086,0.071-0.255,0.004-0.371-0.144l0,0c-0.115-0.149-0.141-0.328-0.054-0.397l4.911-3.847
					C156.902,22.995,157.072,23.06,157.188,23.211L157.188,23.211z"/>
				<g>
					<path fill="#010101" d="M157.486,23.708l-4.91,3.848c-0.088,0.067-0.07,0.245,0.051,0.395c0.122,0.152,0.285,0.217,0.37,0.149
						l4.911-3.851c0.088-0.068,0.066-0.246-0.051-0.396C157.741,23.704,157.574,23.636,157.486,23.708z"/>
					<path fill="#010101" d="M156.115,27.369c0,0,1.078-0.716,0.613-2.195l-2.567,2.017
						C154.159,27.19,155.098,28.093,156.115,27.369z"/>
				</g>
			</g>
		</g>
		<g>
			<path fill="none" stroke="#010101" stroke-width="0.7" stroke-miterlimit="10" d="M74.078,121.16l4.156-2.252
				c0,0-1.654-0.961-0.931-3.51c0,0,1.792-6.672-3.134-10.019c0,0-2.481-1.851-6.208-0.046c0,0-5.36,2.209-2.848,8.242
				c0,0,0.744,3.05,5.698,4.862C70.81,118.434,73.981,119.051,74.078,121.16z"/>
			<path fill="none" stroke="#010101" stroke-width="0.7" stroke-miterlimit="10" d="M75.208,119.609c0,0-0.69-2.898-3.303-4.911
				c0,0-1.108-0.401-0.749,0.413c0,0,0.952,0.661,1.501-1.035c0,0,0.219-0.882-0.454-1.093c0,0-0.819,1.248,1.134,1.091
				c0,0,1.096-0.411,0.987-1.63c0,0-1.179-0.462-0.448,1.804c0,0,1.156,3.652,2.624,4.783"/>
			<g>
				<path fill="#010101" d="M78.445,119.844c0.058,0.109,0.057,0.223-0.005,0.258l-3.433,1.931c-0.062,0.032-0.16-0.021-0.22-0.125
					l0,0c-0.059-0.107-0.057-0.22,0.005-0.255l3.434-1.93C78.288,119.686,78.385,119.742,78.445,119.844L78.445,119.844z"/>
				<path fill="#010101" d="M78.824,120.477c0.058,0.104,0.056,0.219-0.004,0.25l-3.433,1.935c-0.062,0.032-0.16-0.022-0.218-0.127
					l0,0c-0.061-0.104-0.058-0.218,0.004-0.25l3.434-1.935C78.669,120.314,78.766,120.371,78.824,120.477L78.824,120.477z"/>
				<g>
					<path fill="#010101" d="M78.963,120.816l-3.433,1.932c-0.063,0.033-0.063,0.145-0.004,0.252
						c0.058,0.104,0.157,0.164,0.218,0.129l3.434-1.936c0.062-0.033,0.065-0.146,0.005-0.254
						C79.123,120.834,79.026,120.779,78.963,120.816z"/>
					<path fill="#010101" d="M77.757,122.967c0,0,0.741-0.344,0.593-1.309l-1.797,1.014
						C76.553,122.668,77.051,123.326,77.757,122.967z"/>
				</g>
			</g>
		</g>
		<g>
			<path fill="none" stroke="#010101" stroke-width="0.7" stroke-miterlimit="10" d="M197.066,45.102l5.262,2.568
				c0,0-0.223-2.367,2.865-3.467c0,0,8.011-3.004,7.839-10.375c0,0,0.073-3.834-4.425-6.289c0,0-6.088-3.809-10.352,3.065
				c0,0-2.544,2.945-0.798,9.242C197.459,39.847,199.125,43.487,197.066,45.102z"/>
			<path fill="none" stroke="#010101" stroke-width="0.7" stroke-miterlimit="10" d="M199.443,45.122c0,0,2.423-2.783,2.565-6.86
				c0,0-0.393-1.407-0.954-0.459c0,0,0.021,1.437,2.121,0.766c0,0,1.047-0.417,0.771-1.246c0,0-1.848,0.073-0.277,1.931
				c0,0,1.206,0.808,2.348-0.181c0,0-0.377-1.521-2.143,0.848c0,0-2.846,3.796-2.932,6.09"/>
			<g>
				<path fill="#010101" d="M201.536,48.556c-0.065,0.133-0.177,0.215-0.257,0.177l-4.424-2.068
					c-0.072-0.039-0.09-0.178-0.024-0.312l0,0c0.067-0.137,0.177-0.216,0.262-0.177l4.421,2.068
					C201.587,48.281,201.596,48.421,201.536,48.556L201.536,48.556z"/>
				<path fill="#010101" d="M201.175,49.394c-0.065,0.134-0.179,0.211-0.26,0.177l-4.42-2.069c-0.078-0.037-0.093-0.176-0.027-0.314
					l0,0c0.064-0.135,0.177-0.213,0.259-0.173l4.42,2.066C201.225,49.117,201.238,49.256,201.175,49.394L201.175,49.394z"/>
				<g>
					<path fill="#010101" d="M200.934,49.775l-4.418-2.067c-0.078-0.037-0.195,0.041-0.259,0.177
						c-0.067,0.134-0.051,0.273,0.025,0.311l4.42,2.067c0.075,0.037,0.19-0.041,0.257-0.176
						C201.023,49.952,201.014,49.812,200.934,49.775z"/>
					<path fill="#010101" d="M197.895,50.115c0,0,0.883,0.496,1.75-0.349l-2.312-1.083
						C197.328,48.682,197.027,49.656,197.895,50.115z"/>
				</g>
			</g>
		</g>
		<g>
			<path fill="none" stroke="#010101" stroke-width="0.7" stroke-miterlimit="10" d="M210.229,101.413l4.053,4.446
				c0,0,0.685-2.343,4.052-2.224c0,0,8.793,0.174,11.424-6.936c0,0,1.527-3.63-1.842-7.685c0,0-4.371-5.948-11.056-0.999
				c0,0-3.537,1.851-4.262,8.524C212.598,96.542,212.809,100.647,210.229,101.413z"/>
			<path fill="none" stroke="#010101" stroke-width="0.7" stroke-miterlimit="10" d="M212.491,102.334c0,0,3.368-1.738,5.052-5.58
				c0,0,0.16-1.495-0.736-0.8c0,0-0.521,1.38,1.741,1.539c0,0,1.16,0,1.211-0.897c0,0-1.788-0.63-1.002,1.739
				c0,0,0.845,1.225,2.316,0.72c0,0,0.213-1.602-2.367,0c0,0-4.16,2.543-5.106,4.7"/>
			<g>
				<path fill="#010101" d="M213.188,106.406c-0.111,0.104-0.254,0.137-0.318,0.072l-3.434-3.651
					c-0.062-0.067-0.022-0.204,0.09-0.311l0,0c0.113-0.104,0.254-0.135,0.314-0.073l3.438,3.652
					C213.339,106.161,213.297,106.301,213.188,106.406L213.188,106.406z"/>
				<path fill="#010101" d="M212.523,107.068c-0.11,0.106-0.25,0.138-0.312,0.073l-3.436-3.654
					c-0.063-0.063-0.022-0.201,0.088-0.308l0,0c0.113-0.105,0.255-0.137,0.316-0.073l3.436,3.653
					C212.677,106.824,212.635,106.963,212.523,107.068L212.523,107.068z"/>
				<g>
					<path fill="#010101" d="M212.148,107.343l-3.437-3.653c-0.062-0.067-0.201-0.032-0.312,0.071
						c-0.113,0.108-0.155,0.244-0.094,0.312l3.437,3.652c0.065,0.067,0.204,0.034,0.313-0.072
						C212.169,107.546,212.212,107.41,212.148,107.343z"/>
					<path fill="#010101" d="M209.118,106.509c0,0,0.653,0.813,1.801,0.332l-1.801-1.908
						C209.118,104.933,208.462,105.749,209.118,106.509z"/>
				</g>
			</g>
		</g>
	</g>
	<g>
		<path fill="#010101" d="M20.971,219.439V206.65h3.233c3.616,0,6.266,2.961,6.266,6.396c0,3.433-2.65,6.396-6.266,6.396H23.42
			v-1.604h0.931c2.394,0,4.33-2.084,4.33-4.787c0-2.812-2.065-4.784-4.952-4.784h-1.042v11.182L20.971,219.439L20.971,219.439z"/>
		<path fill="#010101" d="M34.465,216.551l-0.658-1.277l4.328-2.412c-0.546-0.549-1.005-0.842-1.991-0.842
			c-1.662,0-2.868,1.246-2.868,3.035c0,1.793,1.206,3.035,2.868,3.035c1.901,0,2.612-1.131,2.94-2.74l1.627,0.203
			c-0.182,2.32-2.047,4.074-4.568,4.074c-2.43,0-4.548-1.861-4.548-4.568c0-2.701,2.119-4.565,4.548-4.565
			c2.047,0,3.417,1.078,4.238,2.776L34.465,216.551z"/>
		<path fill="#010101" d="M41.715,217.904h4.494c0.749,0,1.041-0.291,1.041-0.84c0-1.605-5.534-0.986-5.534-4.021
			c0-1.555,1.078-2.377,2.994-2.377h3.781v1.535h-4.055c-0.786,0-1.023,0.223-1.041,0.768c-0.02,1.516,5.535,0.877,5.535,4.023
			c0,1.656-1.169,2.443-2.722,2.443h-4.494L41.715,217.904L41.715,217.904z"/>
		<path fill="#010101" d="M51.849,207.746c0.62,0,0.967,0.473,0.967,0.967c0,0.492-0.348,0.967-0.967,0.967
			c-0.62,0-0.967-0.475-0.967-0.967C50.882,208.219,51.229,207.746,51.849,207.746z M51.047,219.439v-8.769h1.606v8.769H51.047z"/>
		<path fill="#010101" d="M61.567,219.037c-0.605,0.326-1.461,0.584-2.064,0.584c-2.558,0-4.529-1.902-4.529-4.461
			c0-2.633,1.79-4.676,4.529-4.676c2.667,0,4.312,2.154,4.312,4.348v3.912c0,3.287-2.009,4.863-4.586,4.863
			c-0.986,0-1.954-0.205-2.887-0.517l0.384-1.457c0.803,0.22,1.607,0.437,2.43,0.437c1.442,0,3.052-0.637,3.052-2.777v-4.094
			c0-1.971-1.279-3.18-2.779-3.18c-1.917,0-2.848,1.518-2.848,3.235s1.278,2.834,2.941,2.834c0.731,0,1.423-0.348,2.046-0.717
			L61.567,219.037L61.567,219.037z"/>
		<path fill="#010101" d="M65.361,219.439v-5.115c0-2.301,1.606-3.834,3.746-3.834c2.137,0,3.744,1.533,3.744,3.834v5.115h-1.606
			v-5.115c0-1.354-0.986-2.301-2.137-2.301c-1.152,0-2.137,0.951-2.137,2.301v5.115H65.361z"/>
		<path fill="#010101" d="M84.573,212.201h-3.14v4.607c0,0.819,0.383,1.096,1.206,1.096h1.936v1.535H82.42
			c-1.645,0-2.593-1.101-2.593-2.832v-8.131h1.607v2.194h3.14L84.573,212.201L84.573,212.201z"/>
		<path fill="#010101" d="M85.649,219.439V206.65h1.606v4.787c0.493-0.549,1.314-0.953,2.248-0.953c2.026,0,3.634,0.877,3.634,3.836
			v5.113h-1.606v-5.113c0-1.793-0.986-2.299-2.139-2.299c-1.167,0-2.137,0.948-2.137,2.299v5.113L85.649,219.439L85.649,219.439z"/>
		<path fill="#010101" d="M101.776,219.439v-4.935c0-1.646-1.388-2.485-2.849-2.485c-1.772,0-2.888,1.409-2.888,3.071
			c0,1.625,1.188,2.994,2.868,2.994c0.914,0,1.663-0.517,2.209-1.209v1.899c-0.639,0.47-1.259,0.841-2.373,0.841
			c-2.521,0-4.312-2.084-4.312-4.658c0-2.502,1.717-4.479,4.53-4.479c2.704,0,4.42,1.648,4.42,4.166v4.789L101.776,219.439
			L101.776,219.439z"/>
		<path fill="#010101" d="M109.937,212.201h-3.143v4.607c0,0.819,0.384,1.096,1.208,1.096h1.937v1.535h-2.156
			c-1.644,0-2.593-1.101-2.593-2.832v-8.131h1.606v2.194h3.141V212.201L109.937,212.201z"/>
		<path fill="#010101" d="M117.606,206.648v7.854c0,2.412,1.279,3.58,2.814,3.58c1.715,0,2.922-1.26,2.922-3.051
			c0-1.806-1.151-3.017-2.888-3.017c-0.729,0-1.625,0.369-2.208,0.771V211.1c0.765-0.436,1.606-0.617,2.483-0.617
			c2.248,0,4.22,1.9,4.22,4.349c0,2.594-1.68,4.787-4.527,4.787c-2.576,0-4.42-1.938-4.42-4.82v-8.149H117.606L117.606,206.648z"/>
		<path fill="#010101" d="M128.836,216.551l-0.658-1.277l4.329-2.412c-0.546-0.549-1.007-0.842-1.991-0.842
			c-1.662,0-2.869,1.246-2.869,3.035c0,1.793,1.207,3.035,2.869,3.035c1.901,0,2.613-1.131,2.94-2.74l1.623,0.203
			c-0.181,2.32-2.048,4.074-4.567,4.074c-2.432,0-4.551-1.861-4.551-4.568c0-2.701,2.119-4.565,4.551-4.565
			c2.047,0,3.418,1.078,4.238,2.776L128.836,216.551z"/>
		<path fill="#010101" d="M143.393,219.439v-4.935c0-1.646-1.391-2.485-2.85-2.485c-1.771,0-2.889,1.409-2.889,3.071
			c0,1.625,1.187,2.994,2.867,2.994c0.916,0,1.664-0.517,2.209-1.209v1.899c-0.64,0.47-1.26,0.841-2.373,0.841
			c-2.521,0-4.314-2.084-4.314-4.658c0-2.502,1.718-4.479,4.527-4.479c2.703,0,4.421,1.648,4.421,4.166v4.789L143.393,219.439
			L143.393,219.439z"/>
		<path fill="#010101" d="M146.527,210.666h1.535v1.006h0.037c0.549-0.859,1.297-1.188,2.375-1.188h0.368v1.535h-0.235
			c-1.557,0-2.465,0.95-2.465,3.325v4.095h-1.607L146.527,210.666L146.527,210.666z"/>
		<path fill="#010101" d="M151.312,217.904h4.494c0.75,0,1.043-0.291,1.043-0.84c0-1.605-5.537-0.986-5.537-4.021
			c0-1.555,1.08-2.377,2.996-2.377h3.78v1.535h-4.056c-0.785,0-1.023,0.223-1.044,0.768c-0.019,1.516,5.538,0.877,5.538,4.023
			c0,1.656-1.17,2.443-2.727,2.443h-4.494L151.312,217.904L151.312,217.904z"/>
		<path fill="#010101" d="M164.938,219.439v-9.595c0-1.991,1.297-3.194,3.104-3.194h1.354v1.531h-1.133
			c-1.059,0-1.719,0.518-1.719,1.625v0.864h2.637v1.535h-2.637v7.233H164.938L164.938,219.439z"/>
		<path fill="#010101" d="M169.866,210.666h1.534v1.006h0.033c0.551-0.859,1.301-1.188,2.377-1.188h0.367v1.535h-0.238
			c-1.553,0-2.465,0.95-2.465,3.325v4.095h-1.604L169.866,210.666L169.866,210.666z"/>
		<path fill="#010101" d="M182.451,210.666v5.113c0,2.303-1.605,3.836-3.746,3.836c-2.139,0-3.741-1.533-3.741-3.836v-5.113h1.604
			v5.113c0,1.354,0.986,2.303,2.143,2.303c1.154,0,2.141-0.951,2.141-2.303v-5.113H182.451z"/>
		<path fill="#010101" d="M185.809,207.746c0.618,0,0.969,0.473,0.969,0.967c0,0.492-0.351,0.967-0.969,0.967
			c-0.617,0-0.966-0.475-0.966-0.967C184.843,208.219,185.188,207.746,185.809,207.746z M185.005,219.439v-8.769h1.606v8.769
			H185.005z"/>
		<path fill="#010101" d="M194.173,212.201h-3.142v4.607c0,0.819,0.385,1.096,1.209,1.096h1.938v1.535h-2.152
			c-1.646,0-2.594-1.101-2.594-2.832v-8.131h1.604v2.194h3.139L194.173,212.201L194.173,212.201z"/>
		<path fill="#010101" d="M194.938,217.904h4.494c0.75,0,1.041-0.291,1.041-0.84c0-1.605-5.535-0.986-5.535-4.021
			c0-1.555,1.08-2.377,2.994-2.377h3.777v1.535h-4.057c-0.784,0-1.02,0.223-1.043,0.768c-0.018,1.516,5.537,0.877,5.537,4.023
			c0,1.656-1.164,2.443-2.723,2.443h-4.494L194.938,217.904L194.938,217.904z"/>
	</g>
</g>
<text transform="matrix(0.5721 0 0 1 78.2339 199.7559)" font-family="'Helvetica-Bold'" font-size="91.6649">R</text>
</svg>
